<svg width="17" height="17" viewBox="0 0 17 17" fill="none" xmlns="http://www.w3.org/2000/svg">
<g clip-path="url(#clip0_2066_1260)">
<path d="M12.0416 1.4165H4.95829C3.00228 1.4165 1.41663 3.00216 1.41663 4.95817V12.0415C1.41663 13.9975 3.00228 15.5832 4.95829 15.5832H12.0416C13.9976 15.5832 15.5833 13.9975 15.5833 12.0415V4.95817C15.5833 3.00216 13.9976 1.4165 12.0416 1.4165Z" stroke="#A11212" stroke-width="1.13333" stroke-linecap="round" stroke-linejoin="round"/>
<path d="M8.49996 11.3332C10.0648 11.3332 11.3333 10.0646 11.3333 8.49984C11.3333 6.93503 10.0648 5.6665 8.49996 5.6665C6.93515 5.6665 5.66663 6.93503 5.66663 8.49984C5.66663 10.0646 6.93515 11.3332 8.49996 11.3332Z" stroke="#A11212" stroke-width="1.13333" stroke-linecap="round" stroke-linejoin="round"/>
<path d="M12.3958 5.31266C12.787 5.31266 13.1042 4.99553 13.1042 4.60433C13.1042 4.21313 12.787 3.896 12.3958 3.896C12.0046 3.896 11.6875 4.21313 11.6875 4.60433C11.6875 4.99553 12.0046 5.31266 12.3958 5.31266Z" fill="#A11212"/>
</g>
<defs>
<clipPath id="clip0_2066_1260">
<rect width="17" height="17" fill="white"/>
</clipPath>
</defs>
</svg>
